# xmcd
#
# Track frame offsets:
#	150
#	11752
#	20376
#	30021
#	41055
#	53252
#	61110
#	71691
#	83293
#	94356
#	103926
#	117795
#	133535
#	143965
#	155154
#	166018
#	176233
#	186808
#	197566
#	207413
#
# Disc length: 2920 seconds
#
# Revision: 0
# Processed by: cddbd v1.4PL0 Copyright (c) Steve Scherf et al.
# Submitted via: EasyCDDAExtractor 4.6.9.1
#
DISCID=060b6614
DTITLE=Larry Robichaud - Chante 20 Ans De Ses Succès Souvenir 
DYEAR=2002
DGENRE=Country
TTITLE0=reviens chérie
TTITLE1=l'arbre gravé
TTITLE2=c'est l'amour
TTITLE3=douce nuit
TTITLE4=si tu me revenais
TTITLE5=l'automne est dans mon coeur
TTITLE6=a la porte de mon coeur
TTITLE7=jour de tristesse
TTITLE8=rose demon coeur
TTITLE9=seul dans la nuit
TTITLE10=lettre d'adieu
TTITLE11=au pied de cet autel
TTITLE12=ce n' est qu'un reve
TTITLE13=je t' ambrasse pour la derniere fois
TTITLE14=la chancon de l'aveugle
TTITLE15=mademoiselle
TTITLE16=tu nest plus la meme
TTITLE17=mon épaule pour pleurer
TTITLE18=la valse d'un soir
TTITLE19=revoir mon village
EXTD=
EXTT0=
EXTT1=
EXTT2=
EXTT3=
EXTT4=
EXTT5=
EXTT6=
EXTT7=
EXTT8=
EXTT9=
EXTT10=
EXTT11=
EXTT12=
EXTT13=
EXTT14=
EXTT15=
EXTT16=
EXTT17=
EXTT18=
EXTT19=
PLAYORDER=
